<mxfile host="app.diagrams.net" modified="2024-02-06T16:15:46.685Z" agent="Mozilla/5.0 (Windows NT 10.0; Win64; x64) AppleWebKit/537.36 (KHTML, like Gecko) Chrome/121.0.0.0 Safari/537.36" etag="52rO75QNYn0vuJSQifJY" version="23.1.1" type="device">
  <diagram name="Page-1" id="z6qcdmJJN31mm8BVg0j_">
    <mxGraphModel dx="954" dy="626" grid="1" gridSize="10" guides="1" tooltips="1" connect="1" arrows="1" fold="1" page="1" pageScale="1" pageWidth="827" pageHeight="1169" math="0" shadow="0">
      <root>
        <mxCell id="0" />
        <mxCell id="1" parent="0" />
        <mxCell id="aKmvNexA3Gcp7zJoaB-V-1" value="&lt;font style=&quot;font-size: 20px;&quot;&gt;TEAM&lt;/font&gt;" style="whiteSpace=wrap;html=1;align=center;" vertex="1" parent="1">
          <mxGeometry x="214" y="240" width="100" height="40" as="geometry" />
        </mxCell>
        <mxCell id="aKmvNexA3Gcp7zJoaB-V-2" value="&lt;font style=&quot;font-size: 20px;&quot;&gt;MATCHES&lt;/font&gt;" style="whiteSpace=wrap;html=1;align=center;" vertex="1" parent="1">
          <mxGeometry x="607" y="240" width="120" height="40" as="geometry" />
        </mxCell>
        <mxCell id="aKmvNexA3Gcp7zJoaB-V-3" value="country_name" style="ellipse;whiteSpace=wrap;html=1;align=center;" vertex="1" parent="1">
          <mxGeometry x="100" y="80" width="80" height="40" as="geometry" />
        </mxCell>
        <mxCell id="aKmvNexA3Gcp7zJoaB-V-4" value="no_of_bowler" style="ellipse;whiteSpace=wrap;html=1;align=center;" vertex="1" parent="1">
          <mxGeometry x="200" y="100" width="100" height="40" as="geometry" />
        </mxCell>
        <mxCell id="aKmvNexA3Gcp7zJoaB-V-5" value="team_name" style="ellipse;whiteSpace=wrap;html=1;align=center;" vertex="1" parent="1">
          <mxGeometry x="370" y="190" width="100" height="40" as="geometry" />
        </mxCell>
        <mxCell id="aKmvNexA3Gcp7zJoaB-V-6" value="no_of_batsman" style="ellipse;whiteSpace=wrap;html=1;align=center;" vertex="1" parent="1">
          <mxGeometry x="30" y="305" width="100" height="40" as="geometry" />
        </mxCell>
        <mxCell id="aKmvNexA3Gcp7zJoaB-V-7" value="team_id" style="ellipse;whiteSpace=wrap;html=1;align=center;fontStyle=4;" vertex="1" parent="1">
          <mxGeometry x="20" y="120" width="100" height="40" as="geometry" />
        </mxCell>
        <mxCell id="aKmvNexA3Gcp7zJoaB-V-8" value="team_rank" style="ellipse;whiteSpace=wrap;html=1;align=center;" vertex="1" parent="1">
          <mxGeometry y="180" width="100" height="40" as="geometry" />
        </mxCell>
        <mxCell id="aKmvNexA3Gcp7zJoaB-V-9" value="wicket_keeper" style="ellipse;shape=doubleEllipse;margin=3;whiteSpace=wrap;html=1;align=center;" vertex="1" parent="1">
          <mxGeometry x="10" y="240" width="100" height="40" as="geometry" />
        </mxCell>
        <mxCell id="aKmvNexA3Gcp7zJoaB-V-10" value="no_of_draws" style="ellipse;whiteSpace=wrap;html=1;align=center;" vertex="1" parent="1">
          <mxGeometry x="340" y="140" width="100" height="40" as="geometry" />
        </mxCell>
        <mxCell id="aKmvNexA3Gcp7zJoaB-V-11" value="no_of_wins" style="ellipse;whiteSpace=wrap;html=1;align=center;" vertex="1" parent="1">
          <mxGeometry x="140" y="310" width="100" height="40" as="geometry" />
        </mxCell>
        <mxCell id="aKmvNexA3Gcp7zJoaB-V-12" value="no_of_loses" style="ellipse;whiteSpace=wrap;html=1;align=center;" vertex="1" parent="1">
          <mxGeometry x="314" y="80" width="100" height="40" as="geometry" />
        </mxCell>
        <mxCell id="aKmvNexA3Gcp7zJoaB-V-17" value="" style="endArrow=none;html=1;rounded=0;exitX=0.75;exitY=0.983;exitDx=0;exitDy=0;exitPerimeter=0;" edge="1" parent="1" source="aKmvNexA3Gcp7zJoaB-V-3" target="aKmvNexA3Gcp7zJoaB-V-1">
          <mxGeometry relative="1" as="geometry">
            <mxPoint x="330" y="310" as="sourcePoint" />
            <mxPoint x="490" y="310" as="targetPoint" />
            <Array as="points" />
          </mxGeometry>
        </mxCell>
        <mxCell id="aKmvNexA3Gcp7zJoaB-V-18" value="" style="endArrow=none;html=1;rounded=0;exitX=0.66;exitY=0.933;exitDx=0;exitDy=0;exitPerimeter=0;entryX=0.5;entryY=0;entryDx=0;entryDy=0;" edge="1" parent="1" source="aKmvNexA3Gcp7zJoaB-V-4" target="aKmvNexA3Gcp7zJoaB-V-1">
          <mxGeometry relative="1" as="geometry">
            <mxPoint x="330" y="310" as="sourcePoint" />
            <mxPoint x="490" y="310" as="targetPoint" />
          </mxGeometry>
        </mxCell>
        <mxCell id="aKmvNexA3Gcp7zJoaB-V-19" value="" style="endArrow=none;html=1;rounded=0;exitX=0.173;exitY=1.033;exitDx=0;exitDy=0;exitPerimeter=0;" edge="1" parent="1" source="aKmvNexA3Gcp7zJoaB-V-12" target="aKmvNexA3Gcp7zJoaB-V-1">
          <mxGeometry relative="1" as="geometry">
            <mxPoint x="330" y="310" as="sourcePoint" />
            <mxPoint x="490" y="310" as="targetPoint" />
          </mxGeometry>
        </mxCell>
        <mxCell id="aKmvNexA3Gcp7zJoaB-V-20" value="" style="endArrow=none;html=1;rounded=0;exitX=0.82;exitY=1.083;exitDx=0;exitDy=0;exitPerimeter=0;entryX=0;entryY=0;entryDx=0;entryDy=0;" edge="1" parent="1" source="aKmvNexA3Gcp7zJoaB-V-7" target="aKmvNexA3Gcp7zJoaB-V-1">
          <mxGeometry relative="1" as="geometry">
            <mxPoint x="330" y="310" as="sourcePoint" />
            <mxPoint x="490" y="310" as="targetPoint" />
          </mxGeometry>
        </mxCell>
        <mxCell id="aKmvNexA3Gcp7zJoaB-V-21" value="" style="endArrow=none;html=1;rounded=0;exitX=0.98;exitY=0.933;exitDx=0;exitDy=0;exitPerimeter=0;" edge="1" parent="1" source="aKmvNexA3Gcp7zJoaB-V-8">
          <mxGeometry relative="1" as="geometry">
            <mxPoint x="330" y="310" as="sourcePoint" />
            <mxPoint x="220" y="250" as="targetPoint" />
          </mxGeometry>
        </mxCell>
        <mxCell id="aKmvNexA3Gcp7zJoaB-V-22" value="" style="endArrow=none;html=1;rounded=0;exitX=1;exitY=0.5;exitDx=0;exitDy=0;entryX=0;entryY=0.75;entryDx=0;entryDy=0;" edge="1" parent="1" source="aKmvNexA3Gcp7zJoaB-V-9" target="aKmvNexA3Gcp7zJoaB-V-1">
          <mxGeometry relative="1" as="geometry">
            <mxPoint x="330" y="310" as="sourcePoint" />
            <mxPoint x="490" y="310" as="targetPoint" />
          </mxGeometry>
        </mxCell>
        <mxCell id="aKmvNexA3Gcp7zJoaB-V-23" value="" style="endArrow=none;html=1;rounded=0;entryX=0.147;entryY=1.05;entryDx=0;entryDy=0;entryPerimeter=0;" edge="1" parent="1" source="aKmvNexA3Gcp7zJoaB-V-6" target="aKmvNexA3Gcp7zJoaB-V-1">
          <mxGeometry relative="1" as="geometry">
            <mxPoint x="330" y="310" as="sourcePoint" />
            <mxPoint x="490" y="310" as="targetPoint" />
          </mxGeometry>
        </mxCell>
        <mxCell id="aKmvNexA3Gcp7zJoaB-V-24" value="" style="endArrow=none;html=1;rounded=0;exitX=1;exitY=0;exitDx=0;exitDy=0;entryX=0.5;entryY=1;entryDx=0;entryDy=0;" edge="1" parent="1" source="aKmvNexA3Gcp7zJoaB-V-11" target="aKmvNexA3Gcp7zJoaB-V-1">
          <mxGeometry relative="1" as="geometry">
            <mxPoint x="330" y="310" as="sourcePoint" />
            <mxPoint x="490" y="310" as="targetPoint" />
          </mxGeometry>
        </mxCell>
        <mxCell id="aKmvNexA3Gcp7zJoaB-V-25" value="" style="endArrow=none;html=1;rounded=0;exitX=0.887;exitY=-0.167;exitDx=0;exitDy=0;exitPerimeter=0;entryX=0;entryY=1;entryDx=0;entryDy=0;" edge="1" parent="1" source="aKmvNexA3Gcp7zJoaB-V-1" target="aKmvNexA3Gcp7zJoaB-V-10">
          <mxGeometry relative="1" as="geometry">
            <mxPoint x="330" y="310" as="sourcePoint" />
            <mxPoint x="490" y="310" as="targetPoint" />
          </mxGeometry>
        </mxCell>
        <mxCell id="aKmvNexA3Gcp7zJoaB-V-26" value="" style="endArrow=none;html=1;rounded=0;exitX=1;exitY=0.25;exitDx=0;exitDy=0;" edge="1" parent="1" source="aKmvNexA3Gcp7zJoaB-V-1" target="aKmvNexA3Gcp7zJoaB-V-5">
          <mxGeometry relative="1" as="geometry">
            <mxPoint x="330" y="310" as="sourcePoint" />
            <mxPoint x="490" y="310" as="targetPoint" />
          </mxGeometry>
        </mxCell>
        <mxCell id="aKmvNexA3Gcp7zJoaB-V-35" value="" style="edgeStyle=entityRelationEdgeStyle;fontSize=12;html=1;endArrow=ERmany;startArrow=ERmany;rounded=0;" edge="1" parent="1" source="aKmvNexA3Gcp7zJoaB-V-27" target="aKmvNexA3Gcp7zJoaB-V-2">
          <mxGeometry width="100" height="100" relative="1" as="geometry">
            <mxPoint x="320" y="260" as="sourcePoint" />
            <mxPoint x="460" y="260" as="targetPoint" />
          </mxGeometry>
        </mxCell>
        <mxCell id="aKmvNexA3Gcp7zJoaB-V-36" value="" style="edgeStyle=entityRelationEdgeStyle;fontSize=12;html=1;endArrow=ERmany;startArrow=ERmany;rounded=0;" edge="1" parent="1" target="aKmvNexA3Gcp7zJoaB-V-27">
          <mxGeometry width="100" height="100" relative="1" as="geometry">
            <mxPoint x="320" y="260" as="sourcePoint" />
            <mxPoint x="640" y="260" as="targetPoint" />
          </mxGeometry>
        </mxCell>
        <mxCell id="aKmvNexA3Gcp7zJoaB-V-27" value="&lt;font style=&quot;font-size: 20px;&quot;&gt;PLAYS&lt;/font&gt;" style="shape=rhombus;perimeter=rhombusPerimeter;whiteSpace=wrap;html=1;align=center;" vertex="1" parent="1">
          <mxGeometry x="400" y="290" width="120" height="60" as="geometry" />
        </mxCell>
        <mxCell id="aKmvNexA3Gcp7zJoaB-V-38" value="winner" style="ellipse;whiteSpace=wrap;html=1;align=center;" vertex="1" parent="1">
          <mxGeometry x="627" y="90" width="100" height="40" as="geometry" />
        </mxCell>
        <mxCell id="aKmvNexA3Gcp7zJoaB-V-39" value="loser" style="ellipse;whiteSpace=wrap;html=1;align=center;" vertex="1" parent="1">
          <mxGeometry x="690" y="140" width="100" height="40" as="geometry" />
        </mxCell>
        <mxCell id="aKmvNexA3Gcp7zJoaB-V-40" value="m_date" style="ellipse;whiteSpace=wrap;html=1;align=center;" vertex="1" parent="1">
          <mxGeometry x="727" y="280" width="100" height="40" as="geometry" />
        </mxCell>
        <mxCell id="aKmvNexA3Gcp7zJoaB-V-41" value="match_no" style="ellipse;whiteSpace=wrap;html=1;align=center;fontStyle=4;" vertex="1" parent="1">
          <mxGeometry x="490" y="160" width="100" height="40" as="geometry" />
        </mxCell>
        <mxCell id="aKmvNexA3Gcp7zJoaB-V-42" value="m_time" style="ellipse;whiteSpace=wrap;html=1;align=center;" vertex="1" parent="1">
          <mxGeometry x="727" y="190" width="100" height="40" as="geometry" />
        </mxCell>
        <mxCell id="aKmvNexA3Gcp7zJoaB-V-43" value="stadium" style="ellipse;whiteSpace=wrap;html=1;align=center;" vertex="1" parent="1">
          <mxGeometry x="520" y="110" width="100" height="40" as="geometry" />
        </mxCell>
        <mxCell id="aKmvNexA3Gcp7zJoaB-V-44" value="t1_name" style="ellipse;whiteSpace=wrap;html=1;align=center;" vertex="1" parent="1">
          <mxGeometry x="480" y="210" width="100" height="40" as="geometry" />
        </mxCell>
        <mxCell id="aKmvNexA3Gcp7zJoaB-V-45" value="t2_name" style="ellipse;whiteSpace=wrap;html=1;align=center;" vertex="1" parent="1">
          <mxGeometry x="720" y="340" width="100" height="40" as="geometry" />
        </mxCell>
        <mxCell id="aKmvNexA3Gcp7zJoaB-V-46" value="u_id" style="ellipse;whiteSpace=wrap;html=1;align=center;" vertex="1" parent="1">
          <mxGeometry x="560" y="320" width="100" height="40" as="geometry" />
        </mxCell>
        <mxCell id="aKmvNexA3Gcp7zJoaB-V-48" value="" style="endArrow=none;html=1;rounded=0;" edge="1" parent="1" source="aKmvNexA3Gcp7zJoaB-V-44" target="aKmvNexA3Gcp7zJoaB-V-2">
          <mxGeometry relative="1" as="geometry">
            <mxPoint x="330" y="310" as="sourcePoint" />
            <mxPoint x="490" y="310" as="targetPoint" />
          </mxGeometry>
        </mxCell>
        <mxCell id="aKmvNexA3Gcp7zJoaB-V-49" value="" style="endArrow=none;html=1;rounded=0;" edge="1" parent="1" source="aKmvNexA3Gcp7zJoaB-V-41" target="aKmvNexA3Gcp7zJoaB-V-2">
          <mxGeometry relative="1" as="geometry">
            <mxPoint x="340" y="310" as="sourcePoint" />
            <mxPoint x="500" y="310" as="targetPoint" />
          </mxGeometry>
        </mxCell>
        <mxCell id="aKmvNexA3Gcp7zJoaB-V-50" value="" style="endArrow=none;html=1;rounded=0;" edge="1" parent="1" source="aKmvNexA3Gcp7zJoaB-V-43" target="aKmvNexA3Gcp7zJoaB-V-2">
          <mxGeometry relative="1" as="geometry">
            <mxPoint x="340" y="310" as="sourcePoint" />
            <mxPoint x="500" y="310" as="targetPoint" />
          </mxGeometry>
        </mxCell>
        <mxCell id="aKmvNexA3Gcp7zJoaB-V-51" value="" style="endArrow=none;html=1;rounded=0;exitX=0.277;exitY=1.033;exitDx=0;exitDy=0;exitPerimeter=0;" edge="1" parent="1" source="aKmvNexA3Gcp7zJoaB-V-38" target="aKmvNexA3Gcp7zJoaB-V-2">
          <mxGeometry relative="1" as="geometry">
            <mxPoint x="340" y="310" as="sourcePoint" />
            <mxPoint x="500" y="310" as="targetPoint" />
          </mxGeometry>
        </mxCell>
        <mxCell id="aKmvNexA3Gcp7zJoaB-V-52" value="" style="endArrow=none;html=1;rounded=0;exitX=0.06;exitY=0.683;exitDx=0;exitDy=0;exitPerimeter=0;entryX=0.692;entryY=0.25;entryDx=0;entryDy=0;entryPerimeter=0;" edge="1" parent="1" source="aKmvNexA3Gcp7zJoaB-V-39" target="aKmvNexA3Gcp7zJoaB-V-2">
          <mxGeometry relative="1" as="geometry">
            <mxPoint x="340" y="310" as="sourcePoint" />
            <mxPoint x="500" y="310" as="targetPoint" />
          </mxGeometry>
        </mxCell>
        <mxCell id="aKmvNexA3Gcp7zJoaB-V-53" value="" style="endArrow=none;html=1;rounded=0;exitX=0.317;exitY=0.85;exitDx=0;exitDy=0;exitPerimeter=0;" edge="1" parent="1" source="aKmvNexA3Gcp7zJoaB-V-42" target="aKmvNexA3Gcp7zJoaB-V-2">
          <mxGeometry relative="1" as="geometry">
            <mxPoint x="340" y="310" as="sourcePoint" />
            <mxPoint x="500" y="310" as="targetPoint" />
          </mxGeometry>
        </mxCell>
        <mxCell id="aKmvNexA3Gcp7zJoaB-V-54" value="" style="endArrow=none;html=1;rounded=0;exitX=0.197;exitY=0.95;exitDx=0;exitDy=0;exitPerimeter=0;entryX=0.247;entryY=0.05;entryDx=0;entryDy=0;entryPerimeter=0;" edge="1" parent="1" source="aKmvNexA3Gcp7zJoaB-V-2" target="aKmvNexA3Gcp7zJoaB-V-46">
          <mxGeometry relative="1" as="geometry">
            <mxPoint x="340" y="310" as="sourcePoint" />
            <mxPoint x="500" y="310" as="targetPoint" />
          </mxGeometry>
        </mxCell>
        <mxCell id="aKmvNexA3Gcp7zJoaB-V-55" value="" style="endArrow=none;html=1;rounded=0;exitX=0.875;exitY=1.083;exitDx=0;exitDy=0;exitPerimeter=0;entryX=0.057;entryY=0.717;entryDx=0;entryDy=0;entryPerimeter=0;" edge="1" parent="1" source="aKmvNexA3Gcp7zJoaB-V-2" target="aKmvNexA3Gcp7zJoaB-V-40">
          <mxGeometry relative="1" as="geometry">
            <mxPoint x="340" y="310" as="sourcePoint" />
            <mxPoint x="500" y="310" as="targetPoint" />
          </mxGeometry>
        </mxCell>
        <mxCell id="aKmvNexA3Gcp7zJoaB-V-56" value="" style="endArrow=none;html=1;rounded=0;exitX=0.75;exitY=1;exitDx=0;exitDy=0;entryX=0.08;entryY=0.15;entryDx=0;entryDy=0;entryPerimeter=0;" edge="1" parent="1" source="aKmvNexA3Gcp7zJoaB-V-2" target="aKmvNexA3Gcp7zJoaB-V-45">
          <mxGeometry relative="1" as="geometry">
            <mxPoint x="340" y="310" as="sourcePoint" />
            <mxPoint x="500" y="310" as="targetPoint" />
          </mxGeometry>
        </mxCell>
        <mxCell id="aKmvNexA3Gcp7zJoaB-V-61" value="&lt;font style=&quot;font-size: 20px;&quot;&gt;CAPTAIN&lt;/font&gt;" style="whiteSpace=wrap;html=1;align=center;" vertex="1" parent="1">
          <mxGeometry x="420" y="425" width="100" height="40" as="geometry" />
        </mxCell>
        <mxCell id="aKmvNexA3Gcp7zJoaB-V-62" value="&lt;font style=&quot;font-size: 12px;&quot;&gt;HEADED&lt;/font&gt;&lt;br&gt;BY" style="shape=rhombus;perimeter=rhombusPerimeter;whiteSpace=wrap;html=1;align=center;direction=west;" vertex="1" parent="1">
          <mxGeometry x="304" y="345" width="120" height="60" as="geometry" />
        </mxCell>
        <mxCell id="aKmvNexA3Gcp7zJoaB-V-63" value="" style="shape=link;html=1;rounded=0;exitX=1;exitY=1;exitDx=0;exitDy=0;width=4;" edge="1" parent="1" source="aKmvNexA3Gcp7zJoaB-V-1" target="aKmvNexA3Gcp7zJoaB-V-62">
          <mxGeometry relative="1" as="geometry">
            <mxPoint x="340" y="300" as="sourcePoint" />
            <mxPoint x="500" y="300" as="targetPoint" />
          </mxGeometry>
        </mxCell>
        <mxCell id="aKmvNexA3Gcp7zJoaB-V-64" value="1" style="resizable=0;html=1;whiteSpace=wrap;align=right;verticalAlign=bottom;" connectable="0" vertex="1" parent="aKmvNexA3Gcp7zJoaB-V-63">
          <mxGeometry x="1" relative="1" as="geometry">
            <mxPoint x="8" y="-12" as="offset" />
          </mxGeometry>
        </mxCell>
        <mxCell id="aKmvNexA3Gcp7zJoaB-V-65" value="1" style="edgeLabel;html=1;align=center;verticalAlign=middle;resizable=0;points=[];" vertex="1" connectable="0" parent="aKmvNexA3Gcp7zJoaB-V-63">
          <mxGeometry x="-0.5598" y="6" relative="1" as="geometry">
            <mxPoint x="2" y="-3" as="offset" />
          </mxGeometry>
        </mxCell>
        <mxCell id="aKmvNexA3Gcp7zJoaB-V-69" value="" style="endArrow=none;html=1;rounded=0;exitX=0.328;exitY=0.189;exitDx=0;exitDy=0;exitPerimeter=0;entryX=0;entryY=0.5;entryDx=0;entryDy=0;" edge="1" parent="1" source="aKmvNexA3Gcp7zJoaB-V-62" target="aKmvNexA3Gcp7zJoaB-V-61">
          <mxGeometry relative="1" as="geometry">
            <mxPoint x="340" y="300" as="sourcePoint" />
            <mxPoint x="500" y="300" as="targetPoint" />
          </mxGeometry>
        </mxCell>
        <mxCell id="aKmvNexA3Gcp7zJoaB-V-70" value="1" style="resizable=0;html=1;whiteSpace=wrap;align=right;verticalAlign=bottom;" connectable="0" vertex="1" parent="aKmvNexA3Gcp7zJoaB-V-69">
          <mxGeometry x="1" relative="1" as="geometry" />
        </mxCell>
        <mxCell id="aKmvNexA3Gcp7zJoaB-V-72" value="name" style="ellipse;whiteSpace=wrap;html=1;align=center;" vertex="1" parent="1">
          <mxGeometry x="530" y="405" width="90" height="30" as="geometry" />
        </mxCell>
        <mxCell id="aKmvNexA3Gcp7zJoaB-V-73" value="team_id" style="ellipse;whiteSpace=wrap;html=1;align=center;" vertex="1" parent="1">
          <mxGeometry x="455" y="380" width="87" height="30" as="geometry" />
        </mxCell>
        <mxCell id="aKmvNexA3Gcp7zJoaB-V-74" value="no_of_wins" style="ellipse;whiteSpace=wrap;html=1;align=center;" vertex="1" parent="1">
          <mxGeometry x="385" y="500" width="70" height="30" as="geometry" />
        </mxCell>
        <mxCell id="aKmvNexA3Gcp7zJoaB-V-75" value="player_id" style="ellipse;whiteSpace=wrap;html=1;align=center;" vertex="1" parent="1">
          <mxGeometry x="470" y="490" width="80" height="30" as="geometry" />
        </mxCell>
        <mxCell id="aKmvNexA3Gcp7zJoaB-V-76" value="year_of_captain" style="ellipse;whiteSpace=wrap;html=1;align=center;" vertex="1" parent="1">
          <mxGeometry x="319" y="455" width="90" height="35" as="geometry" />
        </mxCell>
        <mxCell id="aKmvNexA3Gcp7zJoaB-V-78" value="" style="endArrow=none;html=1;rounded=0;exitX=0.293;exitY=-0.048;exitDx=0;exitDy=0;exitPerimeter=0;" edge="1" parent="1" source="aKmvNexA3Gcp7zJoaB-V-76">
          <mxGeometry relative="1" as="geometry">
            <mxPoint x="340" y="400" as="sourcePoint" />
            <mxPoint x="420" y="445" as="targetPoint" />
          </mxGeometry>
        </mxCell>
        <mxCell id="aKmvNexA3Gcp7zJoaB-V-79" value="" style="endArrow=none;html=1;rounded=0;exitX=0.319;exitY=-0.022;exitDx=0;exitDy=0;exitPerimeter=0;entryX=0.25;entryY=1;entryDx=0;entryDy=0;" edge="1" parent="1" source="aKmvNexA3Gcp7zJoaB-V-74" target="aKmvNexA3Gcp7zJoaB-V-61">
          <mxGeometry relative="1" as="geometry">
            <mxPoint x="340" y="400" as="sourcePoint" />
            <mxPoint x="470" y="480" as="targetPoint" />
          </mxGeometry>
        </mxCell>
        <mxCell id="aKmvNexA3Gcp7zJoaB-V-80" value="" style="endArrow=none;html=1;rounded=0;exitX=0.573;exitY=0.058;exitDx=0;exitDy=0;exitPerimeter=0;" edge="1" parent="1" source="aKmvNexA3Gcp7zJoaB-V-61">
          <mxGeometry relative="1" as="geometry">
            <mxPoint x="340" y="400" as="sourcePoint" />
            <mxPoint x="500" y="410" as="targetPoint" />
          </mxGeometry>
        </mxCell>
        <mxCell id="aKmvNexA3Gcp7zJoaB-V-81" value="" style="endArrow=none;html=1;rounded=0;exitX=0.5;exitY=1;exitDx=0;exitDy=0;entryX=0.658;entryY=-0.089;entryDx=0;entryDy=0;entryPerimeter=0;" edge="1" parent="1" source="aKmvNexA3Gcp7zJoaB-V-61" target="aKmvNexA3Gcp7zJoaB-V-75">
          <mxGeometry relative="1" as="geometry">
            <mxPoint x="340" y="400" as="sourcePoint" />
            <mxPoint x="500" y="400" as="targetPoint" />
          </mxGeometry>
        </mxCell>
        <mxCell id="aKmvNexA3Gcp7zJoaB-V-82" value="" style="endArrow=none;html=1;rounded=0;exitX=1;exitY=0.25;exitDx=0;exitDy=0;entryX=0;entryY=1;entryDx=0;entryDy=0;" edge="1" parent="1" source="aKmvNexA3Gcp7zJoaB-V-61" target="aKmvNexA3Gcp7zJoaB-V-72">
          <mxGeometry relative="1" as="geometry">
            <mxPoint x="340" y="400" as="sourcePoint" />
            <mxPoint x="500" y="400" as="targetPoint" />
          </mxGeometry>
        </mxCell>
        <mxCell id="aKmvNexA3Gcp7zJoaB-V-83" value="" style="endArrow=none;html=1;rounded=0;exitX=0.873;exitY=0.958;exitDx=0;exitDy=0;exitPerimeter=0;" edge="1" parent="1" source="aKmvNexA3Gcp7zJoaB-V-61">
          <mxGeometry relative="1" as="geometry">
            <mxPoint x="340" y="400" as="sourcePoint" />
            <mxPoint x="560" y="470" as="targetPoint" />
          </mxGeometry>
        </mxCell>
        <mxCell id="aKmvNexA3Gcp7zJoaB-V-85" value="&lt;font style=&quot;font-size: 20px;&quot;&gt;COACH&lt;/font&gt;" style="whiteSpace=wrap;html=1;align=center;" vertex="1" parent="1">
          <mxGeometry x="364" y="585" width="100" height="40" as="geometry" />
        </mxCell>
        <mxCell id="aKmvNexA3Gcp7zJoaB-V-90" value="" style="endArrow=none;html=1;rounded=0;exitX=0.656;exitY=0.972;exitDx=0;exitDy=0;exitPerimeter=0;" edge="1" parent="1" source="aKmvNexA3Gcp7zJoaB-V-84">
          <mxGeometry relative="1" as="geometry">
            <mxPoint x="330" y="500" as="sourcePoint" />
            <mxPoint x="360" y="600" as="targetPoint" />
            <Array as="points" />
          </mxGeometry>
        </mxCell>
        <mxCell id="aKmvNexA3Gcp7zJoaB-V-91" value="N" style="resizable=0;html=1;whiteSpace=wrap;align=right;verticalAlign=bottom;" connectable="0" vertex="1" parent="aKmvNexA3Gcp7zJoaB-V-90">
          <mxGeometry x="1" relative="1" as="geometry">
            <mxPoint x="-10" y="10" as="offset" />
          </mxGeometry>
        </mxCell>
        <mxCell id="aKmvNexA3Gcp7zJoaB-V-84" value="&lt;font style=&quot;font-size: 10px;&quot;&gt;MEMBERED BY&lt;/font&gt;" style="shape=rhombus;perimeter=rhombusPerimeter;whiteSpace=wrap;html=1;align=center;" vertex="1" parent="1">
          <mxGeometry x="204" y="430" width="120" height="60" as="geometry" />
        </mxCell>
        <mxCell id="aKmvNexA3Gcp7zJoaB-V-94" value="" style="endArrow=none;html=1;rounded=0;exitX=0.5;exitY=0;exitDx=0;exitDy=0;entryX=0.88;entryY=1.133;entryDx=0;entryDy=0;entryPerimeter=0;" edge="1" parent="1" source="aKmvNexA3Gcp7zJoaB-V-84" target="aKmvNexA3Gcp7zJoaB-V-1">
          <mxGeometry relative="1" as="geometry">
            <mxPoint x="330" y="500" as="sourcePoint" />
            <mxPoint x="280" y="300" as="targetPoint" />
          </mxGeometry>
        </mxCell>
        <mxCell id="aKmvNexA3Gcp7zJoaB-V-95" value="1" style="resizable=0;html=1;whiteSpace=wrap;align=right;verticalAlign=bottom;" connectable="0" vertex="1" parent="aKmvNexA3Gcp7zJoaB-V-94">
          <mxGeometry x="1" relative="1" as="geometry">
            <mxPoint x="11" y="20" as="offset" />
          </mxGeometry>
        </mxCell>
        <mxCell id="aKmvNexA3Gcp7zJoaB-V-96" value="c_name" style="ellipse;whiteSpace=wrap;html=1;align=center;" vertex="1" parent="1">
          <mxGeometry x="321" y="650" width="64" height="35" as="geometry" />
        </mxCell>
        <mxCell id="aKmvNexA3Gcp7zJoaB-V-97" value="team_id" style="ellipse;whiteSpace=wrap;html=1;align=center;" vertex="1" parent="1">
          <mxGeometry x="406" y="670" width="64" height="30" as="geometry" />
        </mxCell>
        <mxCell id="aKmvNexA3Gcp7zJoaB-V-99" value="coach_id" style="ellipse;whiteSpace=wrap;html=1;align=center;fontStyle=4;" vertex="1" parent="1">
          <mxGeometry x="464" y="640" width="70" height="30" as="geometry" />
        </mxCell>
        <mxCell id="aKmvNexA3Gcp7zJoaB-V-100" value="" style="endArrow=none;html=1;rounded=0;exitX=0.401;exitY=-0.019;exitDx=0;exitDy=0;exitPerimeter=0;entryX=0.113;entryY=1.008;entryDx=0;entryDy=0;entryPerimeter=0;" edge="1" parent="1" source="aKmvNexA3Gcp7zJoaB-V-96" target="aKmvNexA3Gcp7zJoaB-V-85">
          <mxGeometry relative="1" as="geometry">
            <mxPoint x="340" y="600" as="sourcePoint" />
            <mxPoint x="500" y="600" as="targetPoint" />
          </mxGeometry>
        </mxCell>
        <mxCell id="aKmvNexA3Gcp7zJoaB-V-101" value="" style="endArrow=none;html=1;rounded=0;exitX=0.25;exitY=0.022;exitDx=0;exitDy=0;exitPerimeter=0;entryX=0.5;entryY=1;entryDx=0;entryDy=0;" edge="1" parent="1" source="aKmvNexA3Gcp7zJoaB-V-97" target="aKmvNexA3Gcp7zJoaB-V-85">
          <mxGeometry relative="1" as="geometry">
            <mxPoint x="340" y="600" as="sourcePoint" />
            <mxPoint x="500" y="600" as="targetPoint" />
          </mxGeometry>
        </mxCell>
        <mxCell id="aKmvNexA3Gcp7zJoaB-V-102" value="" style="endArrow=none;html=1;rounded=0;exitX=0.75;exitY=1;exitDx=0;exitDy=0;entryX=0.5;entryY=0;entryDx=0;entryDy=0;" edge="1" parent="1" source="aKmvNexA3Gcp7zJoaB-V-85" target="aKmvNexA3Gcp7zJoaB-V-99">
          <mxGeometry relative="1" as="geometry">
            <mxPoint x="340" y="600" as="sourcePoint" />
            <mxPoint x="500" y="600" as="targetPoint" />
          </mxGeometry>
        </mxCell>
        <mxCell id="aKmvNexA3Gcp7zJoaB-V-104" value="&lt;font style=&quot;font-size: 20px;&quot;&gt;PLAYERS&lt;/font&gt;" style="whiteSpace=wrap;html=1;align=center;" vertex="1" parent="1">
          <mxGeometry x="80" y="510" width="100" height="40" as="geometry" />
        </mxCell>
        <mxCell id="aKmvNexA3Gcp7zJoaB-V-105" value="HAS" style="shape=rhombus;perimeter=rhombusPerimeter;whiteSpace=wrap;html=1;align=center;" vertex="1" parent="1">
          <mxGeometry x="134" y="390" width="80" height="45" as="geometry" />
        </mxCell>
        <mxCell id="aKmvNexA3Gcp7zJoaB-V-106" value="" style="endArrow=none;html=1;rounded=0;exitX=0.5;exitY=0;exitDx=0;exitDy=0;entryX=0.75;entryY=1;entryDx=0;entryDy=0;" edge="1" parent="1" source="aKmvNexA3Gcp7zJoaB-V-105" target="aKmvNexA3Gcp7zJoaB-V-1">
          <mxGeometry relative="1" as="geometry">
            <mxPoint x="340" y="490" as="sourcePoint" />
            <mxPoint x="500" y="490" as="targetPoint" />
            <Array as="points">
              <mxPoint x="240" y="350" />
            </Array>
          </mxGeometry>
        </mxCell>
        <mxCell id="aKmvNexA3Gcp7zJoaB-V-107" value="1" style="resizable=0;html=1;whiteSpace=wrap;align=right;verticalAlign=bottom;" connectable="0" vertex="1" parent="aKmvNexA3Gcp7zJoaB-V-106">
          <mxGeometry x="1" relative="1" as="geometry">
            <mxPoint y="30" as="offset" />
          </mxGeometry>
        </mxCell>
        <mxCell id="aKmvNexA3Gcp7zJoaB-V-108" value="" style="endArrow=none;html=1;rounded=0;exitX=0.5;exitY=1;exitDx=0;exitDy=0;entryX=0.653;entryY=0.033;entryDx=0;entryDy=0;entryPerimeter=0;" edge="1" parent="1" source="aKmvNexA3Gcp7zJoaB-V-105" target="aKmvNexA3Gcp7zJoaB-V-104">
          <mxGeometry relative="1" as="geometry">
            <mxPoint x="340" y="490" as="sourcePoint" />
            <mxPoint x="500" y="490" as="targetPoint" />
          </mxGeometry>
        </mxCell>
        <mxCell id="aKmvNexA3Gcp7zJoaB-V-109" value="N" style="resizable=0;html=1;whiteSpace=wrap;align=right;verticalAlign=bottom;" connectable="0" vertex="1" parent="aKmvNexA3Gcp7zJoaB-V-108">
          <mxGeometry x="1" relative="1" as="geometry" />
        </mxCell>
        <mxCell id="aKmvNexA3Gcp7zJoaB-V-110" value="no_of_Wc" style="ellipse;whiteSpace=wrap;html=1;align=center;" vertex="1" parent="1">
          <mxGeometry x="50" y="435" width="70" height="35" as="geometry" />
        </mxCell>
        <mxCell id="aKmvNexA3Gcp7zJoaB-V-111" value="team_id" style="ellipse;whiteSpace=wrap;html=1;align=center;" vertex="1" parent="1">
          <mxGeometry x="10" y="470" width="60" height="30" as="geometry" />
        </mxCell>
        <mxCell id="aKmvNexA3Gcp7zJoaB-V-112" value="player_id" style="ellipse;whiteSpace=wrap;html=1;align=center;" vertex="1" parent="1">
          <mxGeometry x="10" y="510" width="60" height="30" as="geometry" />
        </mxCell>
        <mxCell id="aKmvNexA3Gcp7zJoaB-V-113" value="no_of_matches" style="ellipse;whiteSpace=wrap;html=1;align=center;" vertex="1" parent="1">
          <mxGeometry x="90" y="565" width="100" height="40" as="geometry" />
        </mxCell>
        <mxCell id="aKmvNexA3Gcp7zJoaB-V-114" value="no_of_T20" style="ellipse;whiteSpace=wrap;html=1;align=center;" vertex="1" parent="1">
          <mxGeometry x="10" y="605" width="80" height="25" as="geometry" />
        </mxCell>
        <mxCell id="aKmvNexA3Gcp7zJoaB-V-115" value="no_of_ODI" style="ellipse;whiteSpace=wrap;html=1;align=center;" vertex="1" parent="1">
          <mxGeometry x="66" y="640" width="74" height="32.5" as="geometry" />
        </mxCell>
        <mxCell id="aKmvNexA3Gcp7zJoaB-V-116" value="no_of_test" style="ellipse;whiteSpace=wrap;html=1;align=center;" vertex="1" parent="1">
          <mxGeometry x="148" y="630" width="84" height="35" as="geometry" />
        </mxCell>
        <mxCell id="aKmvNexA3Gcp7zJoaB-V-117" value="cap_id" style="ellipse;whiteSpace=wrap;html=1;align=center;fontStyle=4;" vertex="1" parent="1">
          <mxGeometry x="560" y="452.5" width="90" height="37.5" as="geometry" />
        </mxCell>
        <mxCell id="aKmvNexA3Gcp7zJoaB-V-118" value="" style="endArrow=none;html=1;rounded=0;exitX=1;exitY=1;exitDx=0;exitDy=0;entryX=0.353;entryY=0.033;entryDx=0;entryDy=0;entryPerimeter=0;" edge="1" parent="1" source="aKmvNexA3Gcp7zJoaB-V-110" target="aKmvNexA3Gcp7zJoaB-V-104">
          <mxGeometry relative="1" as="geometry">
            <mxPoint x="340" y="390" as="sourcePoint" />
            <mxPoint x="500" y="390" as="targetPoint" />
          </mxGeometry>
        </mxCell>
        <mxCell id="aKmvNexA3Gcp7zJoaB-V-119" value="" style="endArrow=none;html=1;rounded=0;exitX=0.989;exitY=0.889;exitDx=0;exitDy=0;exitPerimeter=0;entryX=0.25;entryY=0;entryDx=0;entryDy=0;" edge="1" parent="1" source="aKmvNexA3Gcp7zJoaB-V-111" target="aKmvNexA3Gcp7zJoaB-V-104">
          <mxGeometry relative="1" as="geometry">
            <mxPoint x="340" y="490" as="sourcePoint" />
            <mxPoint x="500" y="490" as="targetPoint" />
          </mxGeometry>
        </mxCell>
        <mxCell id="aKmvNexA3Gcp7zJoaB-V-120" value="" style="endArrow=none;html=1;rounded=0;exitX=0.656;exitY=1.044;exitDx=0;exitDy=0;exitPerimeter=0;entryX=0;entryY=0.75;entryDx=0;entryDy=0;" edge="1" parent="1" source="aKmvNexA3Gcp7zJoaB-V-112" target="aKmvNexA3Gcp7zJoaB-V-104">
          <mxGeometry relative="1" as="geometry">
            <mxPoint x="340" y="490" as="sourcePoint" />
            <mxPoint x="500" y="490" as="targetPoint" />
          </mxGeometry>
        </mxCell>
        <mxCell id="aKmvNexA3Gcp7zJoaB-V-121" value="" style="endArrow=none;html=1;rounded=0;exitX=0.687;exitY=1.05;exitDx=0;exitDy=0;exitPerimeter=0;entryX=0.5;entryY=0;entryDx=0;entryDy=0;" edge="1" parent="1" source="aKmvNexA3Gcp7zJoaB-V-104" target="aKmvNexA3Gcp7zJoaB-V-113">
          <mxGeometry relative="1" as="geometry">
            <mxPoint x="340" y="490" as="sourcePoint" />
            <mxPoint x="500" y="490" as="targetPoint" />
          </mxGeometry>
        </mxCell>
        <mxCell id="aKmvNexA3Gcp7zJoaB-V-122" value="" style="endArrow=none;html=1;rounded=0;exitX=0;exitY=1;exitDx=0;exitDy=0;entryX=1;entryY=0;entryDx=0;entryDy=0;" edge="1" parent="1" source="aKmvNexA3Gcp7zJoaB-V-113" target="aKmvNexA3Gcp7zJoaB-V-114">
          <mxGeometry relative="1" as="geometry">
            <mxPoint x="340" y="490" as="sourcePoint" />
            <mxPoint x="500" y="490" as="targetPoint" />
          </mxGeometry>
        </mxCell>
        <mxCell id="aKmvNexA3Gcp7zJoaB-V-123" value="" style="endArrow=none;html=1;rounded=0;exitX=0.4;exitY=1.125;exitDx=0;exitDy=0;exitPerimeter=0;entryX=0.5;entryY=0;entryDx=0;entryDy=0;" edge="1" parent="1" source="aKmvNexA3Gcp7zJoaB-V-113" target="aKmvNexA3Gcp7zJoaB-V-115">
          <mxGeometry relative="1" as="geometry">
            <mxPoint x="340" y="490" as="sourcePoint" />
            <mxPoint x="500" y="490" as="targetPoint" />
          </mxGeometry>
        </mxCell>
        <mxCell id="aKmvNexA3Gcp7zJoaB-V-124" value="" style="endArrow=none;html=1;rounded=0;exitX=0.76;exitY=1.025;exitDx=0;exitDy=0;exitPerimeter=0;entryX=0.365;entryY=-0.057;entryDx=0;entryDy=0;entryPerimeter=0;" edge="1" parent="1" source="aKmvNexA3Gcp7zJoaB-V-113" target="aKmvNexA3Gcp7zJoaB-V-116">
          <mxGeometry relative="1" as="geometry">
            <mxPoint x="340" y="490" as="sourcePoint" />
            <mxPoint x="500" y="490" as="targetPoint" />
          </mxGeometry>
        </mxCell>
        <mxCell id="aKmvNexA3Gcp7zJoaB-V-128" value="" style="endArrow=block;dashed=1;endFill=0;endSize=12;html=1;rounded=0;entryX=0.873;entryY=0.9;entryDx=0;entryDy=0;entryPerimeter=0;" edge="1" parent="1" target="aKmvNexA3Gcp7zJoaB-V-104">
          <mxGeometry width="160" relative="1" as="geometry">
            <mxPoint x="170" y="760" as="sourcePoint" />
            <mxPoint x="500" y="690" as="targetPoint" />
            <Array as="points">
              <mxPoint x="260" y="640" />
            </Array>
          </mxGeometry>
        </mxCell>
        <mxCell id="aKmvNexA3Gcp7zJoaB-V-129" value="" style="endArrow=block;dashed=1;endFill=0;endSize=12;html=1;rounded=0;entryX=0.94;entryY=0.25;entryDx=0;entryDy=0;entryPerimeter=0;" edge="1" parent="1" target="aKmvNexA3Gcp7zJoaB-V-104">
          <mxGeometry width="160" relative="1" as="geometry">
            <mxPoint x="270" y="770" as="sourcePoint" />
            <mxPoint x="564" y="700" as="targetPoint" />
            <Array as="points">
              <mxPoint x="290" y="620" />
            </Array>
          </mxGeometry>
        </mxCell>
        <mxCell id="aKmvNexA3Gcp7zJoaB-V-130" value="BATSMAN" style="whiteSpace=wrap;html=1;align=center;" vertex="1" parent="1">
          <mxGeometry x="90" y="760" width="100" height="40" as="geometry" />
        </mxCell>
        <mxCell id="aKmvNexA3Gcp7zJoaB-V-131" value="BOWLER" style="whiteSpace=wrap;html=1;align=center;" vertex="1" parent="1">
          <mxGeometry x="240" y="770" width="100" height="40" as="geometry" />
        </mxCell>
        <mxCell id="aKmvNexA3Gcp7zJoaB-V-132" value="bating_avg" style="ellipse;whiteSpace=wrap;html=1;align=center;" vertex="1" parent="1">
          <mxGeometry x="10" y="700" width="100" height="40" as="geometry" />
        </mxCell>
        <mxCell id="aKmvNexA3Gcp7zJoaB-V-133" value="total_runs" style="ellipse;whiteSpace=wrap;html=1;align=center;" vertex="1" parent="1">
          <mxGeometry x="10" y="830" width="100" height="40" as="geometry" />
        </mxCell>
        <mxCell id="aKmvNexA3Gcp7zJoaB-V-134" value="no_of_sixes" style="ellipse;whiteSpace=wrap;html=1;align=center;" vertex="1" parent="1">
          <mxGeometry x="66" y="880" width="100" height="40" as="geometry" />
        </mxCell>
        <mxCell id="aKmvNexA3Gcp7zJoaB-V-135" value="no_of_fours" style="ellipse;whiteSpace=wrap;html=1;align=center;" vertex="1" parent="1">
          <mxGeometry x="148" y="830" width="100" height="40" as="geometry" />
        </mxCell>
        <mxCell id="aKmvNexA3Gcp7zJoaB-V-137" value="type" style="ellipse;whiteSpace=wrap;html=1;align=center;" vertex="1" parent="1">
          <mxGeometry x="364" y="780" width="100" height="40" as="geometry" />
        </mxCell>
        <mxCell id="aKmvNexA3Gcp7zJoaB-V-138" value="no_of_wickets" style="ellipse;whiteSpace=wrap;html=1;align=center;" vertex="1" parent="1">
          <mxGeometry x="309" y="830" width="100" height="40" as="geometry" />
        </mxCell>
        <mxCell id="aKmvNexA3Gcp7zJoaB-V-140" value="" style="endArrow=none;html=1;rounded=0;exitX=0.713;exitY=0;exitDx=0;exitDy=0;exitPerimeter=0;entryX=0.25;entryY=1;entryDx=0;entryDy=0;" edge="1" parent="1" source="aKmvNexA3Gcp7zJoaB-V-133" target="aKmvNexA3Gcp7zJoaB-V-130">
          <mxGeometry relative="1" as="geometry">
            <mxPoint x="340" y="790" as="sourcePoint" />
            <mxPoint x="500" y="790" as="targetPoint" />
          </mxGeometry>
        </mxCell>
        <mxCell id="aKmvNexA3Gcp7zJoaB-V-141" value="" style="endArrow=none;html=1;rounded=0;exitX=0.613;exitY=-0.083;exitDx=0;exitDy=0;exitPerimeter=0;entryX=0.5;entryY=1;entryDx=0;entryDy=0;" edge="1" parent="1" source="aKmvNexA3Gcp7zJoaB-V-134" target="aKmvNexA3Gcp7zJoaB-V-130">
          <mxGeometry relative="1" as="geometry">
            <mxPoint x="340" y="790" as="sourcePoint" />
            <mxPoint x="500" y="790" as="targetPoint" />
          </mxGeometry>
        </mxCell>
        <mxCell id="aKmvNexA3Gcp7zJoaB-V-142" value="" style="endArrow=none;html=1;rounded=0;exitX=0.75;exitY=1;exitDx=0;exitDy=0;entryX=0.353;entryY=0.083;entryDx=0;entryDy=0;entryPerimeter=0;" edge="1" parent="1" source="aKmvNexA3Gcp7zJoaB-V-130" target="aKmvNexA3Gcp7zJoaB-V-135">
          <mxGeometry relative="1" as="geometry">
            <mxPoint x="340" y="790" as="sourcePoint" />
            <mxPoint x="500" y="790" as="targetPoint" />
          </mxGeometry>
        </mxCell>
        <mxCell id="aKmvNexA3Gcp7zJoaB-V-143" value="" style="endArrow=none;html=1;rounded=0;exitX=0.84;exitY=1.133;exitDx=0;exitDy=0;exitPerimeter=0;entryX=0.303;entryY=-0.017;entryDx=0;entryDy=0;entryPerimeter=0;" edge="1" parent="1" source="aKmvNexA3Gcp7zJoaB-V-131" target="aKmvNexA3Gcp7zJoaB-V-138">
          <mxGeometry relative="1" as="geometry">
            <mxPoint x="340" y="790" as="sourcePoint" />
            <mxPoint x="500" y="790" as="targetPoint" />
          </mxGeometry>
        </mxCell>
        <mxCell id="aKmvNexA3Gcp7zJoaB-V-144" value="" style="endArrow=none;html=1;rounded=0;entryX=0;entryY=0.5;entryDx=0;entryDy=0;" edge="1" parent="1" target="aKmvNexA3Gcp7zJoaB-V-137">
          <mxGeometry relative="1" as="geometry">
            <mxPoint x="340" y="790" as="sourcePoint" />
            <mxPoint x="500" y="790" as="targetPoint" />
          </mxGeometry>
        </mxCell>
        <mxCell id="aKmvNexA3Gcp7zJoaB-V-146" value="&lt;font style=&quot;font-size: 20px;&quot;&gt;UMPIRE&lt;/font&gt;" style="whiteSpace=wrap;html=1;align=center;" vertex="1" parent="1">
          <mxGeometry x="642" y="630" width="100" height="40" as="geometry" />
        </mxCell>
        <mxCell id="aKmvNexA3Gcp7zJoaB-V-147" value="u_name" style="ellipse;whiteSpace=wrap;html=1;align=center;" vertex="1" parent="1">
          <mxGeometry x="542" y="690" width="100" height="40" as="geometry" />
        </mxCell>
        <mxCell id="aKmvNexA3Gcp7zJoaB-V-148" value="u_id" style="ellipse;whiteSpace=wrap;html=1;align=center;" vertex="1" parent="1">
          <mxGeometry x="580" y="750" width="100" height="40" as="geometry" />
        </mxCell>
        <mxCell id="aKmvNexA3Gcp7zJoaB-V-149" value="country" style="ellipse;whiteSpace=wrap;html=1;align=center;" vertex="1" parent="1">
          <mxGeometry x="720" y="690" width="100" height="40" as="geometry" />
        </mxCell>
        <mxCell id="aKmvNexA3Gcp7zJoaB-V-150" value="no_of_matches" style="ellipse;whiteSpace=wrap;html=1;align=center;" vertex="1" parent="1">
          <mxGeometry x="710" y="760" width="100" height="40" as="geometry" />
        </mxCell>
        <mxCell id="aKmvNexA3Gcp7zJoaB-V-151" value="" style="endArrow=none;html=1;rounded=0;exitX=0.581;exitY=1.067;exitDx=0;exitDy=0;exitPerimeter=0;entryX=0.5;entryY=0;entryDx=0;entryDy=0;" edge="1" parent="1" source="aKmvNexA3Gcp7zJoaB-V-145" target="aKmvNexA3Gcp7zJoaB-V-146">
          <mxGeometry relative="1" as="geometry">
            <mxPoint x="340" y="590" as="sourcePoint" />
            <mxPoint x="690" y="620" as="targetPoint" />
          </mxGeometry>
        </mxCell>
        <mxCell id="aKmvNexA3Gcp7zJoaB-V-153" value="N" style="resizable=0;html=1;whiteSpace=wrap;align=right;verticalAlign=bottom;" connectable="0" vertex="1" parent="aKmvNexA3Gcp7zJoaB-V-151">
          <mxGeometry x="1" relative="1" as="geometry" />
        </mxCell>
        <mxCell id="aKmvNexA3Gcp7zJoaB-V-154" value="" style="endArrow=none;html=1;rounded=0;entryX=0.5;entryY=0;entryDx=0;entryDy=0;exitX=0.564;exitY=1.2;exitDx=0;exitDy=0;exitPerimeter=0;" edge="1" parent="1" source="aKmvNexA3Gcp7zJoaB-V-2" target="aKmvNexA3Gcp7zJoaB-V-145">
          <mxGeometry relative="1" as="geometry">
            <mxPoint x="690" y="300" as="sourcePoint" />
            <mxPoint x="692" y="630" as="targetPoint" />
          </mxGeometry>
        </mxCell>
        <mxCell id="aKmvNexA3Gcp7zJoaB-V-155" value="M" style="resizable=0;html=1;whiteSpace=wrap;align=left;verticalAlign=bottom;" connectable="0" vertex="1" parent="aKmvNexA3Gcp7zJoaB-V-154">
          <mxGeometry x="-1" relative="1" as="geometry">
            <mxPoint x="5" y="12" as="offset" />
          </mxGeometry>
        </mxCell>
        <mxCell id="aKmvNexA3Gcp7zJoaB-V-145" value="UMPIERED&lt;br&gt;BY" style="shape=rhombus;perimeter=rhombusPerimeter;whiteSpace=wrap;html=1;align=center;" vertex="1" parent="1">
          <mxGeometry x="620" y="505" width="120" height="60" as="geometry" />
        </mxCell>
        <mxCell id="aKmvNexA3Gcp7zJoaB-V-157" value="" style="endArrow=none;html=1;rounded=0;exitX=0;exitY=0.75;exitDx=0;exitDy=0;entryX=0.613;entryY=-0.05;entryDx=0;entryDy=0;entryPerimeter=0;" edge="1" parent="1" source="aKmvNexA3Gcp7zJoaB-V-146" target="aKmvNexA3Gcp7zJoaB-V-147">
          <mxGeometry relative="1" as="geometry">
            <mxPoint x="340" y="790" as="sourcePoint" />
            <mxPoint x="500" y="790" as="targetPoint" />
          </mxGeometry>
        </mxCell>
        <mxCell id="aKmvNexA3Gcp7zJoaB-V-158" value="" style="endArrow=none;html=1;rounded=0;exitX=0.5;exitY=1;exitDx=0;exitDy=0;entryX=0.5;entryY=0;entryDx=0;entryDy=0;" edge="1" parent="1" source="aKmvNexA3Gcp7zJoaB-V-146" target="aKmvNexA3Gcp7zJoaB-V-148">
          <mxGeometry relative="1" as="geometry">
            <mxPoint x="340" y="790" as="sourcePoint" />
            <mxPoint x="500" y="790" as="targetPoint" />
          </mxGeometry>
        </mxCell>
        <mxCell id="aKmvNexA3Gcp7zJoaB-V-159" value="" style="endArrow=none;html=1;rounded=0;exitX=0.75;exitY=1;exitDx=0;exitDy=0;entryX=0.5;entryY=0;entryDx=0;entryDy=0;" edge="1" parent="1" source="aKmvNexA3Gcp7zJoaB-V-146" target="aKmvNexA3Gcp7zJoaB-V-149">
          <mxGeometry relative="1" as="geometry">
            <mxPoint x="340" y="790" as="sourcePoint" />
            <mxPoint x="500" y="790" as="targetPoint" />
          </mxGeometry>
        </mxCell>
        <mxCell id="aKmvNexA3Gcp7zJoaB-V-160" value="" style="endArrow=none;html=1;rounded=0;entryX=0.253;entryY=-0.067;entryDx=0;entryDy=0;entryPerimeter=0;exitX=0.633;exitY=0.983;exitDx=0;exitDy=0;exitPerimeter=0;" edge="1" parent="1" source="aKmvNexA3Gcp7zJoaB-V-146" target="aKmvNexA3Gcp7zJoaB-V-150">
          <mxGeometry relative="1" as="geometry">
            <mxPoint x="340" y="790" as="sourcePoint" />
            <mxPoint x="500" y="790" as="targetPoint" />
          </mxGeometry>
        </mxCell>
      </root>
    </mxGraphModel>
  </diagram>
</mxfile>
